<svg width="20" height="20" viewBox="0 0 20 20" fill="none" xmlns="http://www.w3.org/2000/svg">
    <path
        d="M2.08325 6.82247C2.16997 5.07271 2.42939 3.98176 3.20545 3.2057C3.98152 2.42964 5.07246 2.17021 6.82223 2.0835M17.9166 6.82247C17.8299 5.07271 17.5704 3.98176 16.7944 3.2057C16.0183 2.42963 14.9274 2.17021 13.1776 2.0835M13.1776 17.9168C14.9274 17.8301 16.0183 17.5707 16.7944 16.7946C17.5704 16.0186 17.8299 14.9276 17.9166 13.1779M6.82222 17.9168C5.07246 17.8301 3.98152 17.5707 3.20545 16.7946C2.42939 16.0186 2.16997 14.9276 2.08325 13.1779"
        stroke="#FCFCFC" stroke-width="1.5" stroke-linecap="round" stroke-linejoin="round" />
    <path
        d="M14.5834 14.1667L14.4149 13.4593C14.2756 12.8748 13.8325 12.4105 13.2552 12.2441L11.2501 11.6662L11.2498 10.4431C11.9971 9.93881 12.4998 8.99621 12.4998 7.91667C12.4998 6.30583 11.3805 5 9.9998 5C8.61908 5 7.4998 6.30583 7.4998 7.91667C7.4998 8.99621 8.00255 9.93881 8.7498 10.4431L8.75008 11.6662L6.75746 12.2495C6.19797 12.4133 5.76472 12.8575 5.61497 13.4209L5.41675 14.1667"
        stroke="#FCFCFC" stroke-width="1.5" stroke-linecap="round" stroke-linejoin="round" />
</svg>
