<svg width="25" height="24" viewBox="0 0 25 24" fill="none" xmlns="http://www.w3.org/2000/svg">
    <path d="M5.09961 14.2864C3.24825 15.1031 2.09961 16.2412 2.09961 17.5C2.09961 19.9853 6.57676 22 12.0996 22C17.6225 22 22.0996 19.9853 22.0996 17.5C22.0996 16.2412 20.951 15.1031 19.0996 14.2864M18.0996 8C18.0996 12.0637 13.5996 14 12.0996 17C10.5996 14 6.09961 12.0637 6.09961 8C6.09961 4.68629 8.7859 2 12.0996 2C15.4133 2 18.0996 4.68629 18.0996 8ZM13.0996 8C13.0996 8.55228 12.6519 9 12.0996 9C11.5473 9 11.0996 8.55228 11.0996 8C11.0996 7.44772 11.5473 7 12.0996 7C12.6519 7 13.0996 7.44772 13.0996 8Z" stroke="#717680" stroke-width="2" stroke-linecap="round" stroke-linejoin="round"/>
</svg>
